<svg width="51" height="51" viewBox="0 0 51 51" fill="none" xmlns="http://www.w3.org/2000/svg">
<circle cx="25.0741" cy="25.0741" r="24.8107" fill="url(#paint0_linear_2001_167)" stroke="url(#paint1_linear_2001_167)" stroke-width="0.526653"/>
<path d="M26.0117 27.91C27.3422 27.91 28.4207 26.831 28.4207 25.4999C28.4207 24.1688 27.3422 23.0898 26.0117 23.0898C24.6812 23.0898 23.6027 24.1688 23.6027 25.4999C23.6027 26.831 24.6812 27.91 26.0117 27.91Z" fill="#00D8FF"/>
<path d="M26.0116 31.0211C22.6283 31.0211 19.6722 30.6226 17.4599 29.8641C16.0251 29.3744 14.8061 28.7214 13.9375 27.9773C13.0162 27.1899 12.5267 26.3305 12.5267 25.4999C12.5267 23.906 14.2735 22.3457 17.2056 21.3279C19.605 20.4925 22.7339 20.0268 26.0068 20.0268C29.222 20.0268 32.3077 20.4781 34.6927 21.3039C36.0892 21.784 37.265 22.4081 38.1 23.0994C39.0069 23.858 39.4868 24.6886 39.4868 25.4999C39.4868 27.1563 37.5337 28.8318 34.3856 29.8737C32.1589 30.613 29.1836 31.0211 26.0116 31.0211ZM26.0116 21.179C22.9067 21.179 19.8354 21.6303 17.5895 22.4129C14.8925 23.3539 13.6832 24.6406 13.6832 25.4999C13.6832 26.3929 14.9837 27.7996 17.8342 28.7742C19.9266 29.4896 22.7579 29.8689 26.0116 29.8689C29.0636 29.8689 31.9094 29.4848 34.0257 28.779C36.9866 27.7948 38.3399 26.3881 38.3399 25.4999C38.3399 25.0438 37.9944 24.5061 37.3657 23.9828C36.6411 23.3779 35.5853 22.8258 34.3232 22.3889C32.0534 21.6111 29.102 21.179 26.0116 21.179Z" fill="#00D8FF"/>
<path d="M20.5458 37.5119C20.0563 37.5119 19.6244 37.4063 19.2597 37.1951C17.8824 36.3981 17.4025 34.1032 17.9832 31.0546C18.4583 28.5532 19.6196 25.615 21.256 22.7776C22.8636 19.993 24.7928 17.5445 26.698 15.8882C27.8113 14.9184 28.939 14.2078 29.9564 13.8333C31.065 13.4253 32.0247 13.4253 32.7254 13.8285C34.1602 14.6543 34.6353 17.1892 33.9635 20.4347C33.4884 22.7392 32.3559 25.519 30.7722 28.27C29.083 31.1986 27.2594 33.5607 25.4982 35.1018C24.3561 36.1004 23.1804 36.8302 22.1054 37.2095C21.5439 37.4111 21.0161 37.5119 20.5458 37.5119ZM21.7503 23.0657L22.2494 23.3537C20.6993 26.0423 19.5524 28.9277 19.1109 31.2706C18.5782 34.0792 19.0917 35.7692 19.8307 36.1964C20.0131 36.3021 20.253 36.3597 20.5458 36.3597C21.5008 36.3597 23.0028 35.7548 24.74 34.2376C26.4052 32.7829 28.1472 30.5168 29.774 27.6987C31.3001 25.0533 32.3846 22.3935 32.8357 20.2091C33.4644 17.1508 32.9221 15.2784 32.1495 14.8319C31.756 14.6063 31.1177 14.6351 30.3499 14.9184C29.4621 15.2448 28.4592 15.8834 27.4514 16.762C25.6422 18.3367 23.7946 20.6796 22.2494 23.3585L21.7503 23.0657Z" fill="#00D8FF"/>
<path d="M31.4778 37.5267C30.1725 37.5267 28.5169 36.7393 26.7893 35.251C24.8601 33.5898 22.8974 31.1173 21.2561 28.2799C19.6437 25.4953 18.492 22.6003 18.0073 20.1182C17.7242 18.6683 17.6714 17.3384 17.8537 16.2678C18.0553 15.1011 18.5304 14.2706 19.2358 13.8625C20.6659 13.0319 23.0989 13.8865 25.5751 16.0902C27.3315 17.6505 29.1743 20.0222 30.7627 22.7684C32.4567 25.697 33.5941 28.4576 34.0452 30.7524C34.3379 32.2408 34.3859 33.6234 34.1795 34.7469C33.9588 35.9423 33.4597 36.7921 32.7399 37.2098C32.38 37.421 31.9529 37.5267 31.4778 37.5267ZM22.2543 27.7038C23.8091 30.3924 25.7383 32.8265 27.5427 34.3772C29.707 36.24 31.425 36.6433 32.1688 36.2112C32.9414 35.7647 33.5077 33.9355 32.9222 30.9781C32.4903 28.808 31.401 26.1675 29.7694 23.3493C28.2385 20.7039 26.4773 18.433 24.8121 16.9543C22.4799 14.8803 20.5891 14.4146 19.8165 14.8611C19.423 15.0867 19.1302 15.6581 18.9911 16.4646C18.8327 17.396 18.8807 18.5867 19.1398 19.8974C19.6005 22.2547 20.7043 25.0248 22.2543 27.7038Z" fill="#00D8FF"/>
<defs>
<linearGradient id="paint0_linear_2001_167" x1="10.6521" y1="0.526673" x2="48.0181" y2="9.42658" gradientUnits="userSpaceOnUse">
<stop stop-color="#04071D"/>
<stop offset="1" stop-color="#0C0E23"/>
</linearGradient>
<linearGradient id="paint1_linear_2001_167" x1="25.0741" y1="0.526672" x2="25.0741" y2="49.6214" gradientUnits="userSpaceOnUse">
<stop stop-color="#66699C" stop-opacity="0.43"/>
<stop offset="1" stop-color="#363749" stop-opacity="0.49"/>
</linearGradient>
</defs>
</svg>
