<svg width="1260" height="1113" viewBox="0 0 1260 1113" fill="none" xmlns="http://www.w3.org/2000/svg">
<mask id="mask0_2001_6" style="mask-type:luminance" maskUnits="userSpaceOnUse" x="0" y="0" width="1260" height="1113">
<path d="M0 0H1259.87V1112.65H0V0Z" fill="white"/>
</mask>
<g mask="url(#mask0_2001_6)">
<path d="M305.317 777.351H212.738V874.116H305.317V777.351Z" fill="url(#paint0_radial_2001_6)" fill-opacity="0.06"/>
<path d="M675.632 487.057H583.053V583.822H675.632V487.057Z" fill="url(#paint1_radial_2001_6)" fill-opacity="0.06"/>
<path d="M583.053 1067.64H490.474V1164.41H583.053V1067.64Z" fill="url(#paint2_radial_2001_6)" fill-opacity="0.06"/>
<path d="M953.37 874.115H860.79V970.879H953.37V874.115Z" fill="url(#paint3_radial_2001_6)" fill-opacity="0.06"/>
<path d="M675.633 777.351H583.053V874.116H675.633V777.351Z" fill="url(#paint4_radial_2001_6)" fill-opacity="0.06"/>
<path d="M27.579 100H-65V196.765M27.579 100V196.765M27.579 100H120.158M-65 196.765H27.579M-65 196.765V293.528M27.579 196.765H120.158M27.579 196.765V293.528M120.158 100V196.765M120.158 100H212.737M120.158 196.765H212.737M120.158 196.765V293.528M27.579 293.528H-65M27.579 293.528H120.158M27.579 293.528V390.293M-65 293.528V390.293M212.737 100V196.765M212.737 100H305.316M212.737 196.765H305.316M212.737 196.765V293.528M120.158 293.528H212.737M120.158 293.528V390.293M305.316 100V196.765M305.316 100H397.895M305.316 196.765H397.895M305.316 196.765V293.528M212.737 293.528H305.316M212.737 293.528V390.293M397.895 100V196.765M397.895 100H490.474M397.895 196.765H490.474M397.895 196.765V293.528M305.316 293.528H397.895M305.316 293.528V390.293M490.474 100V196.765M490.474 100H583.053M490.474 196.765H583.053M490.474 196.765V293.528M397.895 293.528H490.474M397.895 293.528V390.293M583.053 100V196.765M583.053 100H675.632M583.053 196.765H675.632M583.053 196.765V293.528M490.474 293.528H583.053M490.474 293.528V390.293M675.632 100V196.765M675.632 100H768.211M675.632 196.765H768.211M675.632 196.765V293.528M583.053 293.528H675.632M583.053 293.528V390.293M768.211 100V196.765M768.211 100H860.79M768.211 196.765H860.79M768.211 196.765V293.528M675.632 293.528H768.211M675.632 293.528V390.293M860.79 100V196.765M860.79 100H953.37M860.79 196.765H953.37M860.79 196.765V293.528M768.211 293.528H860.79M768.211 293.528V390.293M953.37 100V196.765M953.37 100H1045.95M953.37 196.765H1045.95M953.37 196.765V293.528M860.79 293.528H953.37M860.79 293.528V390.293M1045.95 100V196.765M1045.95 100H1138.53M1045.95 196.765H1138.53M1045.95 196.765V293.528M953.37 293.528H1045.95M953.37 293.528V390.293M1138.53 100V196.765M1138.53 100H1231.11M1138.53 196.765H1231.11M1138.53 196.765V293.528M1045.95 293.528H1138.53M1045.95 293.528V390.293M1231.11 100V196.765M1231.11 100H1323.69V196.765M1231.11 196.765H1323.69M1231.11 196.765V293.528M1138.53 293.528H1231.11M1138.53 293.528V390.293M1323.69 196.765V293.528M1231.11 293.528H1323.69M1231.11 293.528V390.293M1323.69 293.528V390.293M27.579 390.293H-65M27.579 390.293H120.158M27.579 390.293V487.057M-65 390.293V487.057M120.158 390.293H212.737M120.158 390.293V487.057M212.737 390.293H305.316M212.737 390.293V487.057M305.316 390.293H397.895M305.316 390.293V487.057M397.895 390.293H490.474M397.895 390.293V487.057M490.474 390.293H583.053M490.474 390.293V487.057M583.053 390.293H675.632M583.053 390.293V487.057M675.632 390.293H768.211M675.632 390.293V487.057M768.211 390.293H860.79M768.211 390.293V487.057M860.79 390.293H953.37M860.79 390.293V487.057M953.37 390.293H1045.95M953.37 390.293V487.057M1045.95 390.293H1138.53M1045.95 390.293V487.057M1138.53 390.293H1231.11M1138.53 390.293V487.057M1231.11 390.293H1323.69M1231.11 390.293V487.057M1323.69 390.293V487.057M27.579 487.057H-65M27.579 487.057H120.158M27.579 487.057V583.822M-65 487.057V583.822M120.158 487.057H212.737M120.158 487.057V583.822M212.737 487.057H305.316M212.737 487.057V583.822M305.316 487.057H397.895M305.316 487.057V583.822M397.895 487.057H490.474M397.895 487.057V583.822M490.474 487.057H583.053M490.474 487.057V583.822M583.053 487.057H675.632M583.053 487.057V583.822M675.632 487.057H768.211M675.632 487.057V583.822M768.211 487.057H860.79M768.211 487.057V583.822M860.79 487.057H953.37M860.79 487.057V583.822M953.37 487.057H1045.95M953.37 487.057V583.822M1045.95 487.057H1138.53M1045.95 487.057V583.822M1138.53 487.057H1231.11M1138.53 487.057V583.822M1231.11 487.057H1323.69M1231.11 487.057V583.822M1323.69 487.057V583.822M27.579 583.822H-65M27.579 583.822H120.158M27.579 583.822V680.587M-65 583.822V680.587M120.158 583.822H212.737M120.158 583.822V680.587M212.737 583.822H305.316M212.737 583.822V680.587M305.316 583.822H397.895M305.316 583.822V680.587M397.895 583.822H490.474M397.895 583.822V680.587M490.474 583.822H583.053M490.474 583.822V680.587M583.053 583.822H675.632M583.053 583.822V680.587M675.632 583.822H768.211M675.632 583.822V680.587M768.211 583.822H860.79M768.211 583.822V680.587M860.79 583.822H953.37M860.79 583.822V680.587M953.37 583.822H1045.95M953.37 583.822V680.587M1045.95 583.822H1138.53M1045.95 583.822V680.587M1138.53 583.822H1231.11M1138.53 583.822V680.587M1231.11 583.822H1323.69M1231.11 583.822V680.587M1323.69 583.822V680.587M27.579 680.587H-65M27.579 680.587H120.158M27.579 680.587V777.35M-65 680.587V777.35M120.158 680.587H212.737M120.158 680.587V777.35M212.737 680.587H305.316M212.737 680.587V777.35M305.316 680.587H397.895M305.316 680.587V777.35M397.895 680.587H490.474M397.895 680.587V777.35M490.474 680.587H583.053M490.474 680.587V777.35M583.053 680.587H675.632M583.053 680.587V777.35M675.632 680.587H768.211M675.632 680.587V777.35M768.211 680.587H860.79M768.211 680.587V777.35M860.79 680.587H953.37M860.79 680.587V777.35M953.37 680.587H1045.95M953.37 680.587V777.35M1045.95 680.587H1138.53M1045.95 680.587V777.35M1138.53 680.587H1231.11M1138.53 680.587V777.35M1231.11 680.587H1323.69M1231.11 680.587V777.35M1323.69 680.587V777.35M27.579 777.35H-65M27.579 777.35H120.158M27.579 777.35V874.115M-65 777.35V874.115M120.158 777.35H212.737M120.158 777.35V874.115M212.737 777.35H305.316M212.737 777.35V874.115M305.316 777.35H397.895M305.316 777.35V874.115M397.895 777.35H490.474M397.895 777.35V874.115M490.474 777.35H583.053M490.474 777.35V874.115M583.053 777.35H675.632M583.053 777.35V874.115M675.632 777.35H768.211M675.632 777.35V874.115M768.211 777.35H860.79M768.211 777.35V874.115M860.79 777.35H953.37M860.79 777.35V874.115M953.37 777.35H1045.95M953.37 777.35V874.115M1045.95 777.35H1138.53M1045.95 777.35V874.115M1138.53 777.35H1231.11M1138.53 777.35V874.115M1231.11 777.35H1323.69M1231.11 777.35V874.115M1323.69 777.35V874.115M27.579 874.115H-65M27.579 874.115H120.158M27.579 874.115V970.879M-65 874.115V970.879M120.158 874.115H212.737M120.158 874.115V970.879M212.737 874.115H305.316M212.737 874.115V970.879M305.316 874.115H397.895M305.316 874.115V970.879M397.895 874.115H490.474M397.895 874.115V970.879M490.474 874.115H583.053M490.474 874.115V970.879M583.053 874.115H675.632M583.053 874.115V970.879M675.632 874.115H768.211M675.632 874.115V970.879M768.211 874.115H860.79M768.211 874.115V970.879M860.79 874.115H953.37M860.79 874.115V970.879M953.37 874.115H1045.95M953.37 874.115V970.879M1045.95 874.115H1138.53M1045.95 874.115V970.879M1138.53 874.115H1231.11M1138.53 874.115V970.879M1231.11 874.115H1323.69M1231.11 874.115V970.879M1323.69 874.115V970.879M27.579 970.879H-65M27.579 970.879H120.158M27.579 970.879V1067.64M-65 970.879V1067.64M120.158 970.879H212.737M120.158 970.879V1067.64M212.737 970.879H305.316M212.737 970.879V1067.64M305.316 970.879H397.895M305.316 970.879V1067.64M397.895 970.879H490.474M397.895 970.879V1067.64M490.474 970.879H583.053M490.474 970.879V1067.64M583.053 970.879H675.632M583.053 970.879V1067.64M675.632 970.879H768.211M675.632 970.879V1067.64M768.211 970.879H860.79M768.211 970.879V1067.64M860.79 970.879H953.37M860.79 970.879V1067.64M953.37 970.879H1045.95M953.37 970.879V1067.64M1045.95 970.879H1138.53M1045.95 970.879V1067.64M1138.53 970.879H1231.11M1138.53 970.879V1067.64M1231.11 970.879H1323.69M1231.11 970.879V1067.64M1323.69 970.879V1067.64M27.579 1067.64H-65M27.579 1067.64H120.158M27.579 1067.64V1164.41M-65 1067.64V1164.41M120.158 1067.64V1164.41M120.158 1067.64H166.448H212.737M212.737 1067.64H305.316M212.737 1067.64V1164.41M305.316 1067.64H397.895M305.316 1067.64V1164.41M397.895 1067.64H490.474M397.895 1067.64V1164.41M490.474 1067.64H583.053M490.474 1067.64V1164.41M583.053 1067.64H675.632M583.053 1067.64V1164.41M675.632 1067.64H768.211M675.632 1067.64V1164.41M768.211 1067.64H860.79M768.211 1067.64V1164.41M860.79 1067.64H953.37M860.79 1067.64V1164.41M953.37 1067.64H1045.95M953.37 1067.64V1164.41M1045.95 1067.64H1138.53M1045.95 1067.64V1164.41M1138.53 1067.64H1231.11M1138.53 1067.64V1164.41M1231.11 1067.64H1323.69M1231.11 1067.64V1164.41M1323.69 1067.64V1164.41M27.579 1164.41H-65M27.579 1164.41H120.158M27.579 1164.41V1261.17M-65 1164.41V1261.17M120.158 1164.41H212.737M120.158 1164.41V1261.17M212.737 1164.41H305.316M212.737 1164.41V1261.17M305.316 1164.41H397.895M305.316 1164.41V1261.17M397.895 1164.41H490.474M397.895 1164.41V1261.17M490.474 1164.41H583.053M490.474 1164.41V1261.17M583.053 1164.41H675.632M583.053 1164.41V1261.17M675.632 1164.41H768.211M675.632 1164.41V1261.17M768.211 1164.41H860.79M768.211 1164.41V1261.17M860.79 1164.41H953.37M860.79 1164.41V1261.17M953.37 1164.41H1045.95M953.37 1164.41V1261.17M1045.95 1164.41H1138.53M1045.95 1164.41V1261.17M1138.53 1164.41H1231.11M1138.53 1164.41V1261.17M1231.11 1164.41H1323.69M1231.11 1164.41V1261.17M1323.69 1164.41V1261.17M27.579 1261.17H-65M27.579 1261.17H120.158M27.579 1261.17V1357.94M-65 1261.17V1357.94M120.158 1261.17H212.737M120.158 1261.17V1357.94M212.737 1261.17H305.316M212.737 1261.17V1357.94M305.316 1261.17H397.895M305.316 1261.17V1357.94M397.895 1261.17H490.474M397.895 1261.17V1357.94M490.474 1261.17H583.053M490.474 1261.17V1357.94M583.053 1261.17H675.632M583.053 1261.17V1357.94M675.632 1261.17H768.211M675.632 1261.17V1357.94M768.211 1261.17H860.79M768.211 1261.17V1357.94M860.79 1261.17H953.37M860.79 1261.17V1357.94M953.37 1261.17H1045.95M953.37 1261.17V1357.94M1045.95 1261.17H1138.53M1045.95 1261.17V1357.94M1138.53 1261.17H1231.11M1138.53 1261.17V1357.94M1231.11 1261.17H1323.69M1231.11 1261.17V1357.94M1323.69 1261.17V1357.94M27.579 1357.94H-65M27.579 1357.94H120.158M27.579 1357.94V1454.7M-65 1357.94V1454.7M120.158 1357.94H212.737M120.158 1357.94V1454.7M212.737 1357.94H305.316M212.737 1357.94V1454.7M305.316 1357.94H397.895M305.316 1357.94V1454.7M397.895 1357.94H490.474M397.895 1357.94V1454.7M490.474 1357.94H583.053M490.474 1357.94V1454.7M583.053 1357.94H675.632M583.053 1357.94V1454.7M675.632 1357.94H768.211M675.632 1357.94V1454.7M768.211 1357.94H860.79M768.211 1357.94V1454.7M860.79 1357.94H953.37M860.79 1357.94V1454.7M953.37 1357.94H1045.95M953.37 1357.94V1454.7M1045.95 1357.94H1138.53M1045.95 1357.94V1454.7M1138.53 1357.94H1231.11M1138.53 1357.94V1454.7M1231.11 1357.94H1323.69M1231.11 1357.94V1454.7M1323.69 1357.94V1454.7M27.579 1454.7H-65M27.579 1454.7H120.158M27.579 1454.7V1551.47M-65 1454.7V1551.47H27.579M120.158 1454.7H212.737M120.158 1454.7V1551.47M212.737 1454.7H305.316M212.737 1454.7V1551.47M305.316 1454.7H397.895M305.316 1454.7V1551.47M397.895 1454.7H490.474M397.895 1454.7V1551.47M490.474 1454.7H583.053M490.474 1454.7V1551.47M583.053 1454.7H675.632M583.053 1454.7V1551.47M675.632 1454.7H768.211M675.632 1454.7V1551.47M768.211 1454.7H860.79M768.211 1454.7V1551.47M860.79 1454.7H953.37M860.79 1454.7V1551.47M953.37 1454.7H1045.95M953.37 1454.7V1551.47M1045.95 1454.7H1138.53M1045.95 1454.7V1551.47M1138.53 1454.7H1231.11M1138.53 1454.7V1551.47M1231.11 1454.7H1323.69M1231.11 1454.7V1551.47M1323.69 1454.7V1551.47H1231.11M27.579 1551.47H120.158M120.158 1551.47H212.737M212.737 1551.47H305.316M305.316 1551.47H397.895M397.895 1551.47H490.474M490.474 1551.47H583.053M583.053 1551.47H675.632M675.632 1551.47H768.211M768.211 1551.47H860.79M860.79 1551.47H953.37M953.37 1551.47H1045.95M1045.95 1551.47H1138.53M1138.53 1551.47H1231.11" stroke="url(#paint5_radial_2001_6)" stroke-opacity="0.2"/>
</g>
<defs>
<radialGradient id="paint0_radial_2001_6" cx="0" cy="0" r="1" gradientUnits="userSpaceOnUse" gradientTransform="translate(260.647 876.414) rotate(90.677) scale(68.5865 119.024)">
<stop stop-color="white" stop-opacity="0.8"/>
<stop offset="1" stop-color="#05041F"/>
</radialGradient>
<radialGradient id="paint1_radial_2001_6" cx="0" cy="0" r="1" gradientUnits="userSpaceOnUse" gradientTransform="translate(629.972 585.147) rotate(90) scale(72.8153 126.361)">
<stop stop-color="white" stop-opacity="0.8"/>
<stop offset="1" stop-color="#05041F"/>
</radialGradient>
<radialGradient id="paint2_radial_2001_6" cx="0" cy="0" r="1" gradientUnits="userSpaceOnUse" gradientTransform="translate(536.877 1162.6) rotate(91.981) scale(70.317 122.039)">
<stop stop-color="white" stop-opacity="0.8"/>
<stop offset="1" stop-color="#05041F"/>
</radialGradient>
<radialGradient id="paint3_radial_2001_6" cx="0" cy="0" r="1" gradientUnits="userSpaceOnUse" gradientTransform="translate(909.511 972.089) rotate(90.6768) scale(68.5866 119.024)">
<stop stop-color="white" stop-opacity="0.8"/>
<stop offset="1" stop-color="#05041F"/>
</radialGradient>
<radialGradient id="paint4_radial_2001_6" cx="0" cy="0" r="1" gradientUnits="userSpaceOnUse" gradientTransform="translate(630.037 874.72) rotate(90) scale(74.5086 129.299)">
<stop stop-color="white" stop-opacity="0.8"/>
<stop offset="1" stop-color="#05041F"/>
</radialGradient>
<radialGradient id="paint5_radial_2001_6" cx="0" cy="0" r="1" gradientUnits="userSpaceOnUse" gradientTransform="translate(630.117 826.338) rotate(90) scale(513.94 491.711)">
<stop stop-color="white"/>
<stop offset="1" stop-color="white" stop-opacity="0"/>
</radialGradient>
</defs>
</svg>
