<svg width="24" height="24" viewBox="0 0 24 24" fill="none" xmlns="http://www.w3.org/2000/svg">
<g clip-path="url(#clip0_2121_26)">
<path d="M11.9341 3C9.54713 3 7.25795 3.94821 5.57012 5.63604C3.88229 7.32387 2.93408 9.61305 2.93408 12C2.93408 14.3869 3.88229 16.6761 5.57012 18.364C7.25795 20.0518 9.54713 21 11.9341 21C14.321 21 16.6102 20.0518 18.298 18.364C19.9859 16.6761 20.9341 14.3869 20.9341 12C20.9341 9.61305 19.9859 7.32387 18.298 5.63604C16.6102 3.94821 14.321 3 11.9341 3ZM14.3063 19.3373H14.2366C14.1842 19.3402 14.1317 19.3324 14.0825 19.3144C14.0332 19.2963 13.9882 19.2684 13.9501 19.2322C13.9149 19.1951 13.8875 19.1512 13.8695 19.1033C13.8514 19.0554 13.8431 19.0044 13.8451 18.9532V17.8987C13.8496 17.5485 13.8526 17.1937 13.8526 16.8367C13.8514 16.5757 13.8132 16.3161 13.7393 16.0657C13.6693 15.8126 13.5283 15.5849 13.3328 15.4095C13.8556 15.359 14.3695 15.2403 14.8613 15.0563C15.2762 14.8985 15.6515 14.6517 15.9608 14.3333C16.2661 14.013 16.4933 13.626 16.6246 13.2037C16.7842 12.6866 16.8602 12.1473 16.8496 11.6063C16.8525 11.2285 16.7864 10.8533 16.6546 10.4992C16.5206 10.1424 16.3181 9.81524 16.0583 9.53625C16.1144 9.39554 16.1551 9.24919 16.1798 9.09975C16.2046 8.94975 16.2173 8.79825 16.2173 8.64675C16.2173 8.45175 16.1948 8.25675 16.1498 8.067C16.109 7.87238 16.0535 7.68109 15.9841 7.49475C15.9576 7.48441 15.9293 7.47931 15.9008 7.47975H15.8183C15.6458 7.48125 15.4763 7.50975 15.3128 7.563C15.1327 7.61557 14.9565 7.68073 14.7856 7.758C14.6156 7.83421 14.45 7.9201 14.2898 8.01525C14.1286 8.1105 13.9861 8.202 13.8601 8.28675C12.5984 7.9351 11.2645 7.9351 10.0028 8.28675C9.86212 8.19268 9.71908 8.10215 9.57383 8.01525C9.41135 7.91931 9.24302 7.83364 9.06983 7.75875C8.89933 7.67892 8.72247 7.61344 8.54108 7.563C8.38081 7.51005 8.21336 7.48198 8.04458 7.47975H7.96208C7.93387 7.47935 7.90585 7.48445 7.87958 7.49475C7.80913 7.68135 7.75149 7.87255 7.70708 8.067C7.66658 8.2575 7.64708 8.45175 7.64633 8.64675C7.64633 8.79825 7.65908 8.94975 7.68458 9.09975C7.70933 9.249 7.74908 9.39525 7.80458 9.53625C7.54552 9.81561 7.34372 10.143 7.21058 10.5C7.07804 10.8539 7.0112 11.2291 7.01333 11.607C7.00284 12.1452 7.07674 12.6817 7.23233 13.197C7.36808 13.6192 7.59458 14.007 7.89533 14.334C8.20658 14.6505 8.58158 14.8965 8.99483 15.057C9.48458 15.2445 9.99758 15.3645 10.5196 15.414C10.3738 15.5461 10.2582 15.708 10.1806 15.8887C10.1067 16.0675 10.0563 16.2551 10.0306 16.4468C9.75539 16.5785 9.45443 16.6477 9.14933 16.6492C8.86599 16.6606 8.58635 16.5818 8.35058 16.4243C8.12441 16.2566 7.93288 16.0468 7.78658 15.8063C7.72111 15.7052 7.64789 15.6094 7.56758 15.5198C7.48286 15.4254 7.38945 15.3393 7.28858 15.2625C7.18916 15.1882 7.08018 15.1277 6.96458 15.0825C6.85085 15.0326 6.72802 15.0068 6.60383 15.0068C6.57383 15.0075 6.54383 15.0105 6.51383 15.0142C6.47286 15.0141 6.43204 15.0192 6.39233 15.0292C6.35743 15.0384 6.32443 15.0536 6.29483 15.0743C6.28138 15.0817 6.27013 15.0925 6.26222 15.1057C6.25432 15.1189 6.25004 15.1339 6.24983 15.1492C6.25298 15.1853 6.26402 15.2203 6.28216 15.2517C6.3003 15.283 6.32511 15.31 6.35483 15.3307C6.42458 15.3862 6.48233 15.429 6.52883 15.459L6.55133 15.4747C6.65108 15.552 6.74708 15.6352 6.83783 15.7245C6.92183 15.798 6.99758 15.8812 7.06283 15.972C7.13033 16.0612 7.18883 16.1565 7.23608 16.2578C7.29083 16.3583 7.34858 16.4737 7.40933 16.605C7.55033 16.9605 7.80083 17.2612 8.12483 17.4637C8.46458 17.646 8.84558 17.7367 9.23183 17.727C9.36233 17.727 9.49358 17.7195 9.62333 17.7045C9.75233 17.6835 9.88058 17.6617 10.0096 17.6362V18.9435C10.0119 18.9962 10.0031 19.0488 9.98372 19.0979C9.96433 19.147 9.93481 19.1914 9.89708 19.2283C9.85935 19.2651 9.81426 19.2936 9.76477 19.3119C9.71527 19.3302 9.66247 19.3378 9.60983 19.3342H9.56333C7.81436 18.7692 6.32458 17.5984 5.36226 16.0325C4.39993 14.4666 4.02831 12.6085 4.31429 10.7929C4.60028 8.97735 5.52509 7.32353 6.92219 6.12927C8.31928 4.93501 10.0969 4.2788 11.9348 4.2788C13.7728 4.2788 15.5504 4.93501 16.9475 6.12927C18.3446 7.32353 19.2694 8.97735 19.5554 10.7929C19.8414 12.6085 19.4697 14.4666 18.5074 16.0325C17.5451 17.5984 16.0553 18.7692 14.3063 19.3342V19.3373Z" fill="white"/>
</g>
<defs>
<clipPath id="clip0_2121_26">
<rect width="18" height="18" fill="white" transform="translate(2.93408 3)"/>
</clipPath>
</defs>
</svg>
