<svg width="24" height="24" viewBox="0 0 24 24" fill="none" xmlns="http://www.w3.org/2000/svg">
<g clip-path="url(#clip0_2121_29)">
<path d="M8.55936 17.8711H6.09842V9.92578H8.55936V17.8711ZM8.8049 7.39439C8.8049 6.59885 8.15945 5.95312 7.36432 5.95312C6.56616 5.95312 5.92236 6.59885 5.92236 7.39439C5.92236 8.19022 6.56616 8.83594 7.36432 8.83594C8.15945 8.83594 8.8049 8.19022 8.8049 7.39439ZM17.77 13.4999C17.77 11.3671 17.3194 9.78516 14.8279 9.78516C13.6306 9.78516 12.827 10.3839 12.4989 11.0066H12.4966V9.92578H10.106V17.8711H12.4966V13.9262C12.4966 12.8931 12.7596 11.8922 14.0402 11.8922C15.3033 11.8922 15.3442 13.0736 15.3442 13.9918V17.8711H17.77V13.4999ZM20.9341 18.8906V5.10938C20.9341 3.9462 19.9879 3 18.8247 3H5.04346C3.88028 3 2.93408 3.9462 2.93408 5.10938V18.8906C2.93408 20.0538 3.88028 21 5.04346 21H18.8247C19.9879 21 20.9341 20.0538 20.9341 18.8906ZM18.8247 4.40625C19.2124 4.40625 19.5278 4.72169 19.5278 5.10938V18.8906C19.5278 19.2783 19.2124 19.5938 18.8247 19.5938H5.04346C4.65578 19.5938 4.34033 19.2783 4.34033 18.8906V5.10938C4.34033 4.72169 4.65578 4.40625 5.04346 4.40625H18.8247Z" fill="white"/>
</g>
<defs>
<clipPath id="clip0_2121_29">
<rect width="18" height="18" fill="white" transform="translate(2.93408 3)"/>
</clipPath>
</defs>
</svg>
